<svg id="Layer_11" data-name="Layer 11" xmlns="http://www.w3.org/2000/svg" viewBox="0 0 256.55 75.94"><defs><style>.cls-1{fill:#9e612b;}.cls-2{fill:#071049;}.cls-12,.cls-3{fill:#27261f;}.cls-4{fill:#fff;}.cls-5{fill:#b9d4ff;}.cls-6{fill:#c18346;}.cls-7{fill:#9e3536;}.cls-8{fill:#201910;}.cls-9{fill:#326f39;}.cls-10{fill:#2b337e;}.cls-11{fill:#d44549;}.cls-12{stroke:#27261f;}.cls-12,.cls-28{stroke-miterlimit:10;}.cls-12,.cls-28,.cls-29{stroke-width:0.1px;}.cls-13{fill:#301705;}.cls-14{fill:#3f2610;}.cls-15{fill:#a11;}.cls-16{fill:#f23636;}.cls-17{fill:#141310;}.cls-18{fill:#074870;}.cls-19{fill:#1a6093;}.cls-20{fill:#267fb5;}.cls-21{fill:#caffbd;}.cls-22{fill:#34a50f;}.cls-23{fill:#efbc84;}.cls-24{fill:#1d3300;}.cls-25{fill:#ffcf8f;}.cls-26{fill:#ffbbfd;}.cls-27{fill:#f46311;}.cls-28,.cls-29{fill:none;stroke:#000;}.cls-29{stroke-linecap:round;stroke-linejoin:round;}.cls-30{fill:#2a4f02;}.cls-31{fill:#3d6607;}</style></defs><polygon class="cls-1" points="36.29 68.77 37.11 71.72 38.84 71.1 38.41 66.31 36.29 68.77"/><path class="cls-2" d="M109.69,185.17s1,3.94,4.22,3.42a93.23,93.23,0,0,0,10.22-3l2.2,6.56,3.26-.55-1.72-8.83a2.79,2.79,0,0,0-2.4-2.25c-2.28-.12-10.56-1.49-10.56-1.49Z" transform="translate(-90.38 -122.55)"/><path class="cls-3" d="M127,193.6l2.41-.12a3,3,0,0,0,2.77,1.13s.75,0,.8,1l-5.9.49Z" transform="translate(-90.38 -122.55)"/><path class="cls-4" d="M90.38,167.21c0-14.21,11.41-25.41,26.12-25.41A27.25,27.25,0,0,1,129,144.74l-1.26,7.49a21.2,21.2,0,0,0-11.2-3.29,18.24,18.24,0,1,0,0,36.47,21.39,21.39,0,0,0,11.83-3.64l1.33,7.49a28.69,28.69,0,0,1-13.37,3.36C101.73,192.62,90.38,181.42,90.38,167.21Z" transform="translate(-90.38 -122.55)"/><path class="cls-4" d="M134.48,176.1c0-9.31,7.42-16.45,17-16.45s16.87,7.14,16.87,16.45-7.42,16.38-16.87,16.38S134.48,185.34,134.48,176.1Zm27-.07a10,10,0,1,0-10,10.22A9.91,9.91,0,0,0,161.44,176Z" transform="translate(-90.38 -122.55)"/><path class="cls-4" d="M188.32,149.78v41.93h-7.49V149.78H167.24l1.19-7.07h32.21l1.19,7.07Z" transform="translate(-90.38 -122.55)"/><path class="cls-4" d="M206,148.87a4.62,4.62,0,1,1,4.62,4.48A4.5,4.5,0,0,1,206,148.87ZM207.07,161l7.07-1.12v31.85h-7.07Z" transform="translate(-90.38 -122.55)"/><path class="cls-4" d="M252.51,172.67v19h-7.08v-18.2c0-5-2.8-7.63-6.86-7.63-4.41,0-7.56,3.15-7.56,8.12v17.71h-7.07v-30.8l6.79-1v4.06a12.44,12.44,0,0,1,9.73-4.27C247.75,159.65,252.51,164.55,252.51,172.67Z" transform="translate(-90.38 -122.55)"/><path class="cls-4" d="M280.43,191.71l-11.69-15.26v15.26h-7.07V142l7.07-1v33.53l11.13-14.07h8.68L276,175.4l13.17,16.31Z" transform="translate(-90.38 -122.55)"/><path class="cls-4" d="M319.28,181.28l2.31,5.67a20.74,20.74,0,0,1-14,5.53c-9.8,0-16.94-7.14-16.94-16.38a16.3,16.3,0,0,1,16.66-16.45c7.91,0,14.21,5.18,15.19,13.86l-24.22,7.84a10.15,10.15,0,0,0,9.38,5.39C311.72,186.74,315.64,185.06,319.28,181.28Zm-22.19-5.46,18-5.88a8.28,8.28,0,0,0-7.77-4.62C301.64,165.32,297.3,169.87,297.09,175.82Z" transform="translate(-90.38 -122.55)"/><path class="cls-4" d="M346.93,159.86v6.65c-6.58,0-10.08,3.15-10.08,9.8v15.4h-7.07v-30.8l6.65-1v5.18C338.46,161.68,341.89,159.86,346.93,159.86Z" transform="translate(-90.38 -122.55)"/><path class="cls-5" d="M124.92,163.81l1.08-1.6a.73.73,0,0,0-.41-1c-.9-.42-6.17-3.2-5.94-4.22.35-1.55,1-5.07,3.06-4.44s7.91,2.21,10.41,3.17c.62.24,8,2.63,7.53,4.42s-1.23,5.29-4.5,4.42l-5.51-1.68a5.9,5.9,0,0,0-3.56.14Z" transform="translate(-90.38 -122.55)"/><polygon class="cls-6" points="31.47 69.62 31.16 72.67 33 72.72 34.35 68.11 31.47 69.62"/><path class="cls-1" d="M113,173.85l3.76,4.36a4.56,4.56,0,0,0,2.34,1.26,59.47,59.47,0,0,0,6.48-.4s.25.62,1.8.19c0,0,1.14.31.94.77,0,0,.61,1.14.35-.87-.22-1.65-2.21-1.53-2.93-1.43l-.25,0-6-1-2.29-5.38Z" transform="translate(-90.38 -122.55)"/><path class="cls-7" d="M117.5,171.66l-3.17,1.88.06-4.34.49-2s.24-.36.36-.33C116.44,167.22,117.5,171.66,117.5,171.66Z" transform="translate(-90.38 -122.55)"/><path class="cls-6" d="M111.75,164.54l1.56-1.86.86-4.2,4,.26,1.13,1.51a5.45,5.45,0,0,0,.28,2.86s.3.6-1,0l-.51,1.1-2.17.54a2.5,2.5,0,0,0-.94,1.34C114.24,168.29,111.75,164.54,111.75,164.54Z" transform="translate(-90.38 -122.55)"/><path class="cls-8" d="M116.86,161.21a2.77,2.77,0,0,1,.66-1.15,4.56,4.56,0,0,0,1.07-1.37L114.48,157s-2.28.65-1.68,3.5c0,0-.09,2.44.86,2.12s1.22-.07,1.1-.61c0,0-1.14-1.82.51-1.84.31,0,.75.8.72,1" transform="translate(-90.38 -122.55)"/><path class="cls-6" d="M115.69,161c-.3.94-1,2.27-.63,2.85.7.94,2.18,1.94,2.58,1.27a6.41,6.41,0,0,0,.86-2c.1-.26-.4-.35-1.5-.21-.49.07-.56-.48-.44-1.14" transform="translate(-90.38 -122.55)"/><path class="cls-9" d="M112.17,159.59l10.93,1.25a.7.7,0,0,0-.69-.91l-2.56-.24s-.54-3.67-4-3.22a3.9,3.9,0,0,0-2.82,1.09s-.28.15-.72,1l-.06.27Z" transform="translate(-90.38 -122.55)"/><circle class="cls-8" cx="28.17" cy="38.93" r="0.22"/><rect class="cls-8" x="117.75" y="160.64" width="1.46" height="0.38" rx="0.15" transform="translate(-95.77 -118.44) rotate(-1.94)"/><path class="cls-10" d="M108.33,180.21s-.52,4,2.66,4.73a93.18,93.18,0,0,0,10.59,1l-.36,6.91,3.24.69,1.64-8.85s.54-2.71-1.41-3-12.82-2.46-12.82-2.46Z" transform="translate(-90.38 -122.55)"/><path class="cls-11" d="M114.47,175.81c-.21,2.14,2.07,4.4,2.07,4.4-2,.2-8.37,3.66-8.37,3.66s-1.23-3.24-.24-11.36a18.27,18.27,0,0,1,3.82-8.41s1.86,2.08,3.59,1.77c0,0,2.69,9.09,1.91,11.63-.41,1.32-6.25-1.8-6.25-1.8l-.78-1.59Z" transform="translate(-90.38 -122.55)"/><path class="cls-3" d="M121.32,194.41l2.29.77a3,3,0,0,0,2.16,2.07s.71.24.36,1.25l-5.66-1.71Z" transform="translate(-90.38 -122.55)"/><path class="cls-6" d="M112.06,172.74l3,6.14a4.64,4.64,0,0,0,1.84,1.49c1.18.47,6,1.51,6,1.51s.17.8,1.6.62c0,0,1,.63.78,1.15,0,0,.45,1.51.39-1s-2.74-2.39-2.74-2.39l-5.31-2.58-2.37-5.75Z" transform="translate(-90.38 -122.55)"/><polyline class="cls-11" points="25.07 47.92 25.47 50.07 21.41 50.88 20.33 49.1"/><rect class="cls-12" x="126.67" y="175.27" width="2.54" height="5.09" rx="0.2" transform="translate(6.75 -161.62) rotate(27.65)"/><path class="cls-1" d="M127.17,177.59s.51-.06.15.34-1.4,1-1.79.79.32-.92.32-.92Z" transform="translate(-90.38 -122.55)"/><polygon class="cls-13" points="203.59 44.61 200.5 46.15 199.71 44.23 204.03 40.98 203.59 44.61"/><path class="cls-3" d="M291.83,168.61l-1.72-2.1a3.35,3.35,0,0,1-3-1.45s-.54-.65-1.46.12l4.05,5.28Z" transform="translate(-90.38 -122.55)"/><polygon class="cls-14" points="205.15 45.49 202.91 48.11 201.43 46.65 204.14 41.97 205.15 45.49"/><path class="cls-3" d="M294.12,170.21l-2.4-1.27a3.37,3.37,0,0,1-3.37-.16s-.74-.39-1.29.68l5.78,3.3Z" transform="translate(-90.38 -122.55)"/><path class="cls-15" d="M319.47,155.93s.62,4.24-.87,5.85-12.28,1.39-16.58.35c-1.27-.3-8.58,5.26-8.58,5.26l-2.64-2s7.09-8.69,10.37-9.22c3.07-.49,11.24-.56,11.24-.56Z" transform="translate(-90.38 -122.55)"/><path class="cls-16" d="M319.47,155.93s.62,4.24-.87,5.85-12.28,1.39-16.58.35c-1.27-.3-7.32,7.26-7.32,7.26L292,166.92s6.1-8.74,9.38-9.27c3.07-.49,12.1-1,12.1-1Z" transform="translate(-90.38 -122.55)"/><polygon class="cls-3" points="216.21 35.43 211.08 35.68 209.56 32.9 213.3 32.45 216.21 35.43"/><polygon class="cls-17" points="216.21 34.67 211.08 34.93 209.56 32.14 213.3 31.7 216.21 34.67"/><path class="cls-13" d="M301.24,154.89c-.34-1.63,1.59-2.18,2.3-2.32l.25,0,2.95-1.63.72,2.07c-1.65.44-3.32.82-3.32.82s0,.67-1.65.77c0,0-1,.67-.63,1.05C301.86,155.61,301.65,156.88,301.24,154.89Z" transform="translate(-90.38 -122.55)"/><path class="cls-18" d="M312.35,145.59s-.63,3.41-7.31,5.11a2.36,2.36,0,0,0,.31,3.59c2,1.92,7.9-3.06,7.9-3.06l1.18-3.1Z" transform="translate(-90.38 -122.55)"/><path class="cls-14" d="M316.76,144.6l-.81-3.06.51-4.27-3.89-1-1,.69a1.72,1.72,0,0,0-.68.95,5.59,5.59,0,0,1-1,2.08s-.49.47.93.27l.14,1.2,1.9,1.21a9.89,9.89,0,0,1,.95,2.17C314.45,147.09,316.76,144.6,316.76,144.6Z" transform="translate(-90.38 -122.55)"/><path class="cls-14" d="M314.2,139.22c0,1,.29,2.49-.3,2.91-1,.68-2.7,1.16-2.87.4a6.54,6.54,0,0,1-.19-2.15c0-.28.49-.2,1.49.28.44.22.69-.28.79-.94" transform="translate(-90.38 -122.55)"/><circle class="cls-8" cx="220.95" cy="16.19" r="0.22"/><path class="cls-14" d="M301.5,155.17c0-2,3-1.81,3-1.81l2.12-.66.65,1.87c-1.43.07-2.68.11-2.68.11s-.17.64-1.77.42c0,0-1.1.46-.83.9C302,156,301.51,157.21,301.5,155.17Z" transform="translate(-90.38 -122.55)"/><rect class="cls-8" x="310.93" y="138.05" width="1.23" height="0.22" rx="0.11" transform="translate(487.88 227.75) rotate(-165.42)"/><path class="cls-19" d="M316.8,143.12s4,5.9,2.67,12.81c0,0-4.16,1.85-6.56.45-.88-.51-1.61-9.37-.31-11.48,0,0,.45-.71.84-.8C313.44,144.1,314.52,144.36,316.8,143.12Z" transform="translate(-90.38 -122.55)"/><path class="cls-20" d="M313.71,145s-1.83,6.09-5.87,6.36-2.5,3.82-2.5,3.82.33,3.64,5.59.94,5.15-9,5.15-9S316.07,142.23,313.71,145Z" transform="translate(-90.38 -122.55)"/><polygon class="cls-3" points="216.21 34.67 216.21 35.43 211.08 35.68 211.03 34.91 216.21 34.67"/><polygon class="cls-3" points="206.61 29.79 211.08 35.62 210.02 32.8 205.45 26.67 206.61 29.79"/><polygon class="cls-3" points="205.45 25.92 206.61 29.03 206.61 29.79 205.45 26.67 205.45 25.92"/><polygon class="cls-17" points="206.61 29.03 211.08 34.87 210.02 32.05 205.45 25.92 206.61 29.03"/><path class="cls-21" d="M307.19,137.8l-1.41-4.36c-.37-1.34-.62-2.25-1.11-2.35-1-.2-15.7-1.35-15.71-2.39,0-1.59-.12-6.27,2.06-6.14s20.19,2.38,22.85,2.74c.67.09,2.1-.09,2,1.76s.05,4.66-3.33,4.57l-2.6-.08h0a3.13,3.13,0,0,0-3.08,3.55Z" transform="translate(-90.38 -122.55)"/><path class="cls-8" d="M312.58,133.76s-.6-1.78,1.22-1.4c0,0,.37-1.2,1.31-.18,0,0,.87-1.36,1.47.12,0,0,1.05-.5,1.05.49,0,0,1.75-.82,1.41,1.23,0,0,2,.59.6,2,0,0,.72.25,0,1,0,0,.81.74-.35,1.22,0,0-.79,1.67-1.63,0,0,0-.56,1.22-1.12,0,0,0-2.68.36-1.28-1.39,0,0-1.52,1.2-1.32-.61,0,0-1.53.62-.88-.79C313,135.36,311.15,134.8,312.58,133.76Z" transform="translate(-90.38 -122.55)"/><path class="cls-8" d="M313.09,138.54a2.23,2.23,0,0,1-1.29-1.81s-.11-1,1.77-1.36a3.81,3.81,0,0,1,3.27,1.21s.21,5-1,5a1.46,1.46,0,0,1-1.5-1.11c-.26-1.17.48-3-1.21-1.89" transform="translate(-90.38 -122.55)"/><path class="cls-22" d="M293.06,126.21,293,127l-.25,0,.1-.8c0-.22-.07-.35-.23-.37a.33.33,0,0,0-.36.32l-.09.77-.25,0,.1-.8a.28.28,0,0,0-.24-.36.32.32,0,0,0-.35.32l-.1.77-.25,0,.16-1.31h.25l0,.18a.44.44,0,0,1,.39-.14.42.42,0,0,1,.37.28.52.52,0,0,1,.46-.18A.48.48,0,0,1,293.06,126.21Z" transform="translate(-90.38 -122.55)"/><path class="cls-22" d="M294.09,127.18v-.09a.44.44,0,0,1-.34.08.48.48,0,1,1,.12-1,.44.44,0,0,1,.3.15v-.07c0-.17,0-.26-.25-.29a1.2,1.2,0,0,0-.33,0l.07-.21a.76.76,0,0,1,.3,0c.34,0,.49.22.46.5l-.09.66,0,.25Zm.05-.45a.28.28,0,0,0-.26-.32.29.29,0,0,0-.33.25.29.29,0,0,0,.26.31A.28.28,0,0,0,294.14,126.73Z" transform="translate(-90.38 -122.55)"/><path class="cls-22" d="M295.5,127.36l-.45-.72-.08.65-.25,0,.27-2.12h.25l-.18,1.45.58-.55.32,0-.63.57.49.76Z" transform="translate(-90.38 -122.55)"/><path class="cls-22" d="M297.17,127.14l.06.22a.82.82,0,0,1-.62.17.7.7,0,1,1,.17-1.39.63.63,0,0,1,.56.65l-1.09.2a.44.44,0,0,0,.39.32A.66.66,0,0,0,297.17,127.14Zm-.94-.36.85-.16a.38.38,0,0,0-.33-.26A.46.46,0,0,0,296.23,126.78Z" transform="translate(-90.38 -122.55)"/><path class="cls-22" d="M297.87,125.54l.48.06a1.05,1.05,0,1,1-.27,2.08l-.48-.06Zm.24,1.89a.8.8,0,1,0,.2-1.58l-.21,0-.2,1.58Z" transform="translate(-90.38 -122.55)"/><path class="cls-22" d="M301.36,128.19l-1.31-1.8-.2,1.52-.26,0,.27-2.17,1.31,1.79.19-1.49h.27Z" transform="translate(-90.38 -122.55)"/><path class="cls-22" d="M303.1,127.64l-.78-.1-.37.63-.29,0,1.24-2,.69,2.29-.29,0Zm-.07-.26-.2-.7-.38.63Z" transform="translate(-90.38 -122.55)"/><path class="cls-22" d="M303.77,128.2l.09-.27a.83.83,0,0,0,.54.33.34.34,0,0,0,.42-.3.38.38,0,0,0-.26-.39l-.13-.06a.62.62,0,0,1-.43-.67.56.56,0,0,1,.67-.48,1,1,0,0,1,.52.23l-.08.26a.87.87,0,0,0-.47-.25.31.31,0,0,0-.37.27c0,.15,0,.28.3.4l.13.06a.63.63,0,0,1,.4.66.62.62,0,0,1-.73.52A1,1,0,0,1,303.77,128.2Z" transform="translate(-90.38 -122.55)"/><path class="cls-22" d="M305.82,127.54l-.09.69a.18.18,0,0,0,.16.23.43.43,0,0,0,.2,0l0,.23a.83.83,0,0,1-.23,0,.38.38,0,0,1-.35-.46l.09-.71-.2,0,.07-.21.16,0,0-.29.27-.11,0,.43.37.05,0,.22Z" transform="translate(-90.38 -122.55)"/><path class="cls-22" d="M307.23,127.47l0,.24a.39.39,0,0,0-.49.38l-.09.67-.25,0,.16-1.31h.25l0,.22A.5.5,0,0,1,307.23,127.47Z" transform="translate(-90.38 -122.55)"/><path class="cls-22" d="M307.51,127.55h.26l-.17,1.34-.25,0Zm0-.53a.16.16,0,0,1,.19-.14.16.16,0,0,1,.15.18.17.17,0,1,1-.34,0Z" transform="translate(-90.38 -122.55)"/><path class="cls-22" d="M309.31,128.28l-.1.8-.25,0,.1-.77a.32.32,0,0,0-.28-.4.36.36,0,0,0-.4.34l-.09.75-.25,0,.16-1.31h.25l0,.18a.51.51,0,0,1,.45-.13A.49.49,0,0,1,309.31,128.28Z" transform="translate(-90.38 -122.55)"/><path class="cls-22" d="M311,128.12l-.22-.05a.57.57,0,0,1,.14.44.59.59,0,0,1-.36.46.52.52,0,0,1,.2.47.55.55,0,0,1-.65.47.56.56,0,0,1-.52-.52l.23-.08a.37.37,0,0,0,.32.39.34.34,0,0,0,.08-.68.41.41,0,0,0-.34.13l-.08-.19a.41.41,0,0,1,.11-.07.57.57,0,0,1-.24-.54.6.6,0,0,1,.71-.5l.68.05Zm-.32.37a.38.38,0,0,0-.34-.43.38.38,0,1,0,.34.43Z" transform="translate(-90.38 -122.55)"/><path class="cls-22" d="M311.07,129.21l.06-.21a.7.7,0,0,0,.37.19.19.19,0,0,0,.23-.16c0-.09,0-.15-.2-.23l0,0a.42.42,0,0,1-.27-.43.38.38,0,0,1,.46-.32.75.75,0,0,1,.36.15l-.07.21a.67.67,0,0,0-.31-.15c-.12,0-.2,0-.21.13s0,.14.18.22l.05,0a.44.44,0,0,1,.3.45.41.41,0,0,1-.5.35A.78.78,0,0,1,311.07,129.21Z" transform="translate(-90.38 -122.55)"/><path class="cls-22" d="M312.33,128.55a1.64,1.64,0,0,1,.87-1.27l.12.21a1.44,1.44,0,0,0-.29,2.32l-.17.18A1.65,1.65,0,0,1,312.33,128.55Z" transform="translate(-90.38 -122.55)"/><path class="cls-22" d="M313.16,129.83a1.41,1.41,0,0,0,.73-1.08,1.43,1.43,0,0,0-.44-1.24l.17-.17a1.68,1.68,0,0,1-.34,2.7Z" transform="translate(-90.38 -122.55)"/><path d="M169.17,145.46c0,.07,0,0-.06.1a.17.17,0,0,1-.08-.06.13.13,0,0,0,0-.06s0,0,.05-.05h.07S169.17,145.44,169.17,145.46Zm.06.4a.57.57,0,0,0,0,.13s0,.07,0,.1,0,.06,0,.08a.09.09,0,0,1,0,.06s0,.05,0,.07,0,0-.08,0-.06,0-.06,0l0,0a.19.19,0,0,1,0-.07.37.37,0,0,0,0-.11s0-.07,0-.11a.65.65,0,0,1,0-.2s0-.06,0-.08,0,0,0,0,0,0,0,0,.05.05.06.09A.57.57,0,0,1,169.23,145.86Z" transform="translate(-90.38 -122.55)"/><path d="M170,145.32a.2.2,0,0,0,.07.06s.06.09.06.13,0,.05-.05.05-.06,0-.09,0a.2.2,0,0,0-.12-.13l-.08,0s-.06,0-.08,0,0,.05,0,.08,0,.07,0,.11,0,.11,0,.17.05,0,.07,0h.08a.06.06,0,0,1,.06,0s0,0,.06,0,.06,0,.06.06,0,.06,0,.07h-.12l-.05,0h0s0,0,0,0a.2.2,0,0,0,0,.11.71.71,0,0,0,.08.18.17.17,0,0,1,0,.07.09.09,0,0,1,0,.06h0a.17.17,0,0,1-.06-.06.37.37,0,0,1,0-.14.53.53,0,0,1,0-.12s0-.06,0,0-.15.07-.16,0h0s0,0,0,0l0,0a.08.08,0,0,1,0,0l0,0s.07,0,.1,0l.09,0s0-.05,0-.08a1.11,1.11,0,0,1,0-.17.76.76,0,0,1,0-.16.11.11,0,0,1,.06-.09.1.1,0,0,1,.05,0h0a.31.31,0,0,1,.21.05S170,145.3,170,145.32Z" transform="translate(-90.38 -122.55)"/><path d="M171.08,145.15l-.06.06a.24.24,0,0,0-.06.08c-.06,0-.07.14-.07.21s0,.07,0,.11,0,.08,0,.12a.41.41,0,0,0,0,.11s0,0,0,.09,0,0,.05.07a.29.29,0,0,0,.07.12l.14.13s0,0,0,0,0,0-.06,0l-.05,0h0s0,0,0,0a1.09,1.09,0,0,1-.13-.17l-.06-.09a.36.36,0,0,1,0-.09.32.32,0,0,1,0-.09s0,0,0,0a.13.13,0,0,0,0-.06.41.41,0,0,1,0-.11.36.36,0,0,1,0-.23.44.44,0,0,1,.1-.19s0,0,0-.06L171,145s.07,0,.07.06S171.1,145.12,171.08,145.15Z" transform="translate(-90.38 -122.55)"/><path d="M171.7,145s0,.07,0,.1a.53.53,0,0,0,0,.12.34.34,0,0,0,0,.1s.06,0,.07,0,.05,0,.07,0,.13,0,.12.08-.1.07-.16.08-.09,0-.08.05a.15.15,0,0,1,0,.07s0,0,0,.05a.41.41,0,0,0,0,.11l0,.13s0,.1.06.09a.15.15,0,0,0,.1-.06s.09-.05.11,0a.09.09,0,0,1,0,.12.26.26,0,0,1-.1.07s-.07.05-.12,0l-.1,0s0,0-.06-.08a1.36,1.36,0,0,1-.06-.29s0-.09,0-.14a.14.14,0,0,0,0-.06l-.05,0s0,0-.06,0,0,0,0,0a.11.11,0,0,1-.11,0s0,0,0-.07,0,0,.07,0,0,0,.08,0,.09,0,.12,0h0a.18.18,0,0,0,0-.1.22.22,0,0,1,0-.08.22.22,0,0,0,0-.08,1,1,0,0,1,0-.1s0,0,.06,0S171.68,145,171.7,145Z" transform="translate(-90.38 -122.55)"/><path d="M172.7,145.56a.06.06,0,0,1,0,0,.13.13,0,0,0,0,.06.16.16,0,0,0,0,.09s0,.07,0,.08a.09.09,0,0,1,0,.1c-.08,0-.07.07-.07.13s0,.07,0,.11v.07s0,0,0,0a.28.28,0,0,1,0,.09s0,.1,0,.11v0s0,0,0,0,0-.09,0-.12a1.68,1.68,0,0,1,0-.45.22.22,0,0,0,0-.08s0,0,0-.06a.5.5,0,0,0-.08-.07l-.1-.09s0,0,0-.07l-.06-.05-.07-.08a.08.08,0,0,1,0-.05s0,0,0,0,0,0,0-.05a.06.06,0,0,1,.08,0l.13.17a.41.41,0,0,1,.05.09s0,0,.06,0,0,0,.07.06,0-.09,0-.11,0-.07,0-.1,0-.07,0-.11a.14.14,0,0,1,0-.09s0,0,0,0h0c.09,0,.08.08,0,.14A.48.48,0,0,0,172.7,145.56Z" transform="translate(-90.38 -122.55)"/><path d="M173.53,145.33v.1a.42.42,0,0,1-.12.3s0,0,0,0-.05,0-.07,0-.07,0-.07.06,0,0,0,.1l0,.13s0,.08,0,.12a.09.09,0,0,1-.07.06s0,0,0,0,0-.05,0-.09a.28.28,0,0,0,0-.09,1.25,1.25,0,0,0,0-.19s0,0-.07,0,0,0,0-.05,0,0,0,0,.07-.05,0-.13a.24.24,0,0,0,0-.08s-.05,0-.07,0l0,0a.11.11,0,0,1,0-.05s0,0,0,0,0,0,0,0,0,0,0,0,0,0,0,0,.05,0,.07,0a.39.39,0,0,1,.14,0s0,0,.05,0l0,0c.06,0,.11,0,.14.06A.24.24,0,0,1,173.53,145.33Zm-.37.13s0,0,0,.08,0,.07,0,.11,0,0,.05,0,0,0,.06,0,0,0,0,0,0,0,0,0a.36.36,0,0,0,0-.09.19.19,0,0,1,0-.08s0,0,0-.06,0,0-.09,0l-.13.06S173.15,145.45,173.16,145.46Z" transform="translate(-90.38 -122.55)"/><path d="M174.25,145.3c0,.06,0,.09,0,.09h0a.06.06,0,0,0-.06,0h-.22l-.12,0v0s0,0,0,0l0,0,.06,0,.07,0h.18l.06,0a.14.14,0,0,0,.1-.06l0,0s0,0,0,0v0c0,.05-.05.1-.16.15l-.07,0h-.06l0,0a.2.2,0,0,1-.1,0l0,0-.07,0-.1-.09a.15.15,0,0,1-.06-.11s0,0,0-.07l0,0v0a.18.18,0,0,1,0-.06.07.07,0,0,0,0-.05.22.22,0,0,1,.1-.14.27.27,0,0,1,.34,0,.33.33,0,0,1,.12.16A.13.13,0,0,1,174.25,145.3Zm-.45-.08v0s0,0,0,0h.22s0,0,0,0h0a.11.11,0,0,0-.08-.07h-.16s0,0,0,0Z" transform="translate(-90.38 -122.55)"/><path d="M175.55,145.08s0,0,0,0l-.13,0h-.07s0,0-.06,0l-.08,0H175s0,0,0,0,0,0,0,0l0,0a.1.1,0,0,1,.07,0h.06l.09,0h.09l.13,0s.09,0,.11,0h.08s0,.05,0,.07S175.56,145.09,175.55,145.08Zm0,.28s0,0,0,0h-.25l-.08,0h-.08s0,0-.05,0h0s0,0,0,0a0,0,0,0,1,0,0h0l.07,0h.15l.09,0h.13s.09,0,.11,0,0,0,0,0,0,0,0,0a.06.06,0,0,1,0,.07Z" transform="translate(-90.38 -122.55)"/><path d="M176.33,145s0,0-.05,0a.61.61,0,0,1-.13,0H176s-.06,0-.08,0h-.17s0,0,0,0,0,0,0,0l0,0,.06,0h.07s.06,0,.08,0l.09,0h.14s.09,0,.1,0h0s0,0,0,0,0,.05,0,.06S176.34,145,176.33,145Zm0,.28s0,0,0,0H176l-.08,0h-.16s0,0,0,0a.06.06,0,0,1,0-.06h0s0,0,.06,0h.07s.06,0,.08,0h.23a.22.22,0,0,1,.11,0h.07s0,.06,0,.07S176.35,145.28,176.34,145.27Z" transform="translate(-90.38 -122.55)"/><path d="M177.1,144.91h0l-.12,0h-.28s0,0-.06,0h0s0,0,0,0,0,0,0,0l0,0s0,0,.07,0,0,0,.06,0,.07,0,.09,0l.09,0H177s.09,0,.11,0h0s0,0,0,0a.06.06,0,0,1,0,.07Zm0,.27s0,0-.05,0h-.2s0,0-.05,0l-.08,0a.11.11,0,0,1-.08,0h-.09s0,0,0,0,0,0,0-.05v0a.08.08,0,0,1,.07,0h.06s.07,0,.09,0H177s.09,0,.11,0h0s0,0,.05,0a.05.05,0,0,1,0,.06S177.13,145.19,177.12,145.18Z" transform="translate(-90.38 -122.55)"/><path d="M177.92,144.54a.35.35,0,0,1,0,.11.11.11,0,0,1,0,.08c-.06,0,0,0,0-.08a.34.34,0,0,1,0-.1c0-.06,0-.18.08-.18S177.93,144.47,177.92,144.54Zm.22-.06v0s0,.06,0,.09l0,.08s0,0,0,0a.07.07,0,0,1,0,0s-.06,0-.08,0,0,0,0-.05,0-.06,0-.1,0-.1,0-.13,0-.06.07-.07A.13.13,0,0,0,178.14,144.48Z" transform="translate(-90.38 -122.55)"/><path d="M179,144.87v0a0,0,0,0,0,0,.06s0,.1,0,.12a0,0,0,0,1,0,0,0,0,0,0,1,0,0s0,0,0,0,0,0,0,0l0,0s-.05-.1-.06-.14,0-.06-.07,0l-.05,0h-.05l0,0h-.07l-.06,0,0,0,0,0h0a.61.61,0,0,1,0,.11c0,.06-.05.09-.07.09s0,0,0,0,0,0,0-.07v0a.17.17,0,0,1,0-.08V145h0s0,0,0,0a.19.19,0,0,0,0-.1v-.14s0-.12.05-.15l0-.05s0,0,0,0a.23.23,0,0,0,.08-.11h0s0,0,0,0h0l0,0,0,0,0,0,0,0h0s0,0,0,0h0v0l0,0h0v0l.07.12h0l.06,0h0v0h0Zm-.24-.12h0v0l0,0a.29.29,0,0,0-.08-.1h0a.16.16,0,0,0-.05.11l0,0v.09a.89.89,0,0,0,0,.11h0s.07,0,.09-.06h0a.16.16,0,0,0,.09,0s0,0,0,0Z" transform="translate(-90.38 -122.55)"/><path d="M179.15,144.38a.61.61,0,0,1,0,.12s0,.06,0,.1v.05s-.07,0-.08,0l0,0s0,0,0,0l0-.08a.3.3,0,0,1,0-.08,0,0,0,0,1,0,0s0,0,0-.06S179.12,144.34,179.15,144.38Zm.13-.15c.06,0,.07.11.09.16s0,.07,0,.1,0,0,0,0l0,0s0,0-.07-.06a.47.47,0,0,1,0-.1s-.05-.08-.05-.11,0,0,0-.07Z" transform="translate(-90.38 -122.55)"/><path d="M179.88,144.21l.05,0s0,0,0,.06a.14.14,0,0,1,.05.11,1.23,1.23,0,0,1,0,.27.44.44,0,0,0,0,.1,1,1,0,0,1,0,.1s0,0,0,0l0,0s0,.05,0,.07,0,.06,0,.08a.18.18,0,0,0-.08.09s0,0-.07.06-.06.06,0,0a0,0,0,0,1,0-.07s0,0,0,0,0,0,0,0,0-.05.06-.09a.17.17,0,0,1,.06-.08s0,0,0-.06l0,0s0-.09,0-.14,0-.1,0-.12,0,0,0-.07a.13.13,0,0,0,0-.09.36.36,0,0,0-.11-.2.27.27,0,0,0-.07-.08l-.07-.05s0,0,0-.08,0,0,.07-.06.1.09.17.13S179.87,144.18,179.88,144.21Z" transform="translate(-90.38 -122.55)"/><path d="M181.29,144.29c.05,0,.08.07,0,.11a.26.26,0,0,0-.15,0s-.08.1-.11.14a.55.55,0,0,0-.1.35s0,.1,0,.12a.09.09,0,0,1-.13,0,.19.19,0,0,1,0-.08.29.29,0,0,0,0-.09.09.09,0,0,0,0-.07s0,0,0,0a.21.21,0,0,1,0-.06s0-.07,0-.12l0,0s0,0,.07,0,0,.1.05.11,0,0,0-.06,0,0,0-.07a1.21,1.21,0,0,1,.1-.14.24.24,0,0,1,.13-.11h.06S181.27,144.27,181.29,144.29Z" transform="translate(-90.38 -122.55)"/><path d="M182.06,144.41c0,.06,0,.1-.05.1h0l-.06,0h-.33a.08.08,0,0,0,0,0s0,0,0,0l0,0s0,0,.06,0a.14.14,0,0,0,.07,0h.07s0,0,0,0h.05l.06,0a.17.17,0,0,0,.11-.06.05.05,0,0,1,0,0s0,0,0,0v0s0,.1-.15.15l-.08,0h-.09a.22.22,0,0,1-.11,0l0,0-.08,0-.1-.09a.34.34,0,0,1-.06-.12s0,0,0-.06,0,0,0,0v-.09a.07.07,0,0,0,0,0,.23.23,0,0,1,.1-.14.44.44,0,0,1,.16-.06.43.43,0,0,1,.19.06.31.31,0,0,1,.11.16Zm-.45-.07v0s0,0,0,0h.22s.05,0,.05,0v0a.11.11,0,0,0-.07-.06h-.11s0,0,0,0h0l0,0Z" transform="translate(-90.38 -122.55)"/><path d="M182.55,143.75s0,.07,0,.11a.16.16,0,0,0,0,.12.13.13,0,0,0,0,.09s.06,0,.06,0,.05,0,.08,0,.13,0,.11.07-.1.08-.16.08-.08,0-.07.05,0,0,0,.07,0,0,0,.05a.41.41,0,0,0,0,.11.61.61,0,0,1,0,.13s0,.1.06.09a.16.16,0,0,0,.1-.05s.09,0,.12,0,0,.08,0,.11l-.1.07a.2.2,0,0,1-.13,0l-.09,0c-.05,0-.05,0-.07-.08a1.59,1.59,0,0,1-.06-.3c0-.05,0-.09,0-.14s0,0,0-.05h-.15a.14.14,0,0,1-.12,0s0,0,0-.07,0,0,.07-.05.05,0,.09,0,.09,0,.12,0h0s0-.06,0-.1a.22.22,0,0,1,0-.08.22.22,0,0,0,0-.08,1,1,0,0,0,0-.1s.05,0,.07,0Z" transform="translate(-90.38 -122.55)"/><path d="M183.12,144.26a.66.66,0,0,0,0,.14s0,0,0,0,0,0,0,.05,0,0,0,0,0,.07.09.07l.08,0a.14.14,0,0,0,.1,0,.19.19,0,0,0,.05-.11s0-.05,0-.08,0-.08,0-.1,0-.1-.09-.11,0-.09,0-.08l.05,0,.06,0s0,0,0,.07,0,0,0,0v.07s0,.07,0,.11,0,.11,0,.16-.07.09-.11.11a.28.28,0,0,1-.22,0,.31.31,0,0,1-.15-.1c-.05-.06-.06-.14-.11-.2a.5.5,0,0,1,0-.17.13.13,0,0,1,0-.06s0,0,0-.08.08,0,.1,0A.36.36,0,0,1,183.12,144.26Z" transform="translate(-90.38 -122.55)"/><path d="M184.35,143.94s.08.07,0,.12a.19.19,0,0,0-.15,0,.28.28,0,0,0-.11.13.57.57,0,0,0-.1.35s0,.1,0,.13a.12.12,0,0,1-.13,0s0-.06,0-.09,0-.06,0-.09a.25.25,0,0,0,0-.07v0s0,0,0-.06,0-.07,0-.11,0,0,0,0,0,0,.07,0,0,.1,0,.12,0,0,.05-.06,0,0,0-.07a.42.42,0,0,1,.09-.14.23.23,0,0,1,.13-.11s0,0,.06,0A.06.06,0,0,1,184.35,143.94Z" transform="translate(-90.38 -122.55)"/><path d="M185.09,144a.05.05,0,0,1,0,0s0,0,0,.05,0,.09,0,.14l.05.06s0,.12,0,.12h0s0,0,0,0l0,0a.07.07,0,0,1,0,0c0-.08-.07-.19-.12-.27s-.06-.09-.07-.09,0,.06,0,.1l0,.11s0,.05,0,.08a.17.17,0,0,1,0,.07s0,.06,0,.08a.05.05,0,0,1,0,.07.12.12,0,0,1-.09,0,.12.12,0,0,1,0-.07.28.28,0,0,1,0-.09.08.08,0,0,1,0-.05l0,0a.08.08,0,0,1,0-.06.62.62,0,0,1,0-.22,0,0,0,0,1,0,0,.06.06,0,0,1,.06,0s0,0,0,.07,0,.11.05.12V144s0,0,0-.09a.2.2,0,0,1,0-.08h.09a.08.08,0,0,1,.08,0s0,0,.06.06A.35.35,0,0,1,185.09,144Z" transform="translate(-90.38 -122.55)"/><path d="M185.93,143.64a.52.52,0,0,1,0,.11s0,.05-.06.07,0,0,0-.07,0-.07,0-.11,0-.18.08-.18S185.94,143.56,185.93,143.64Zm.23-.07s0,0,0,0,0,.05,0,.08,0,.06,0,.09,0,0,0,0,0,0,0,0-.07,0-.09,0a.06.06,0,0,0,0,0s0-.07,0-.11,0-.09,0-.12,0-.07.07-.07S186.13,143.55,186.16,143.57Z" transform="translate(-90.38 -122.55)"/><path d="M186.36,143.41s0,.09,0,.13a.61.61,0,0,0,0,.13s0,.1,0,.09a.73.73,0,0,0,.08-.09l0,0s0,0,.06,0l.06,0h.06s.07,0,.1,0a.19.19,0,0,1,.06.15.44.44,0,0,1,0,.16.84.84,0,0,1-.08.19s-.06,0-.07.06,0,0,0,0,0,0,0,0a.39.39,0,0,1-.15.11l-.08,0s-.06,0-.07-.05l0,0s0,0,0,0,0-.09,0-.14,0-.06,0-.08l0-.05v-.06s0-.07,0-.12a.68.68,0,0,0,0-.14.16.16,0,0,1,0-.12s0-.06,0-.1,0-.11,0-.16a.09.09,0,0,1,0-.07l0,0s0,.06,0,.09A.17.17,0,0,0,186.36,143.41Zm.16.64s0,0,0,.07,0,.06,0,0l.09-.06.05,0s0,0,0-.06,0,0,0,0a.16.16,0,0,0,0-.09c0-.06,0-.15,0-.18s-.1,0-.13.05-.1.06-.09.11,0,.11,0,.14A.43.43,0,0,0,186.52,144.05Z" transform="translate(-90.38 -122.55)"/><path d="M187.19,143.34v.08s0,0,0,.07,0,0,0,.08,0,.06,0,.09a.5.5,0,0,1,0,.17.76.76,0,0,0,0,.15c0,.06,0,.1.05.16a.06.06,0,0,1,0,.07l-.06,0c-.06,0-.08,0-.09,0s0-.12,0-.16a1.27,1.27,0,0,1,0-.28.13.13,0,0,0,0-.06s0,0,0-.07a.41.41,0,0,0,0-.11s0,0,0-.05a.57.57,0,0,1,0-.13.34.34,0,0,1,0-.1s0,0,0-.05.07,0,.08,0A.48.48,0,0,1,187.19,143.34Z" transform="translate(-90.38 -122.55)"/><path d="M187.52,143.76c0,.05,0,.09,0,.14a.14.14,0,0,0,0,.06s0,0,0,0v0a.23.23,0,0,0,.09.08h.09s.06,0,.1,0a.27.27,0,0,0,0-.11s0-.06,0-.09a.33.33,0,0,0,0-.1c-.05,0,0-.1-.09-.11s0-.09,0-.08l.05,0,.06,0s0,0,0,.07l0,0v.07s0,.07,0,.11,0,.11,0,.16-.08.09-.11.11a.25.25,0,0,1-.22,0,.27.27,0,0,1-.15-.1,2,2,0,0,1-.11-.2.47.47,0,0,1,0-.17s0,0,0-.06.05,0,.05-.08.09,0,.1,0A.12.12,0,0,1,187.52,143.76Z" transform="translate(-90.38 -122.55)"/><path d="M188.74,143.66c0,.06,0,.09-.05.1h0a.06.06,0,0,0-.06,0h-.21l-.12,0v0s0,0,0,0a.11.11,0,0,1,0,0l.06,0,.07,0h.18l.06,0a.26.26,0,0,0,.1-.07.05.05,0,0,1,0,0h0a0,0,0,0,1,0,0h0c0,.05,0,.1-.16.15l-.08,0-.05,0,0,0a.2.2,0,0,1-.1,0l0,0-.07,0a.43.43,0,0,1-.1-.09.14.14,0,0,1-.06-.11.2.2,0,0,1,0-.07l0,0v0a.18.18,0,0,1,0-.06v0a.26.26,0,0,1,.1-.13.33.33,0,0,1,.17-.07.36.36,0,0,1,.3.23A.43.43,0,0,1,188.74,143.66Zm-.45-.08v0s0,0,0,0h.22s0,0,0,0h0a.08.08,0,0,0-.07-.07h-.13s0,0,0,0l0,0S188.29,143.57,188.29,143.58Z" transform="translate(-90.38 -122.55)"/><path d="M189,143.27s0,.08,0,.12,0,.06.05.09a0,0,0,0,0,0,.05s-.07,0-.09,0,0,0,0,0,0,0,0,0a.59.59,0,0,1,0-.08.19.19,0,0,1,0-.08s0,0,0,0a.07.07,0,0,0,0-.06S189,143.22,189,143.27Zm.14-.15c.06,0,.06.11.08.16s0,.07,0,.1l0,0s0,0,0,0,0,0-.07-.07a.23.23,0,0,1,0-.1s0-.07-.05-.11a.09.09,0,0,1,0-.06Z" transform="translate(-90.38 -122.55)"/><path d="M189.77,143.85a.41.41,0,0,1,0,.19.12.12,0,0,1,0,.07s0,0,0,0l0,0s0,.05-.06.06,0,0,0,0h0v0s0,0,0,0,0,0,0-.05.05-.06.08-.08.06-.05.06-.08a.86.86,0,0,0,0-.16s0-.06,0-.09,0,0,0,0,0,0,0,0,.05,0,.07,0S189.77,143.81,189.77,143.85Zm-.08-.46s0,.07,0,.11a.15.15,0,0,0-.07,0s0,0,0,0a0,0,0,0,1,0-.07.15.15,0,0,0,0-.08h.05A.1.1,0,0,0,189.69,143.39Z" transform="translate(-90.38 -122.55)"/><path d="M171.36,148.19l0,0a.07.07,0,0,1,0-.05s0,0,0,0l0,0,.1,0a.7.7,0,0,0,.18-.05h.05s0,0,0,0a.06.06,0,0,1,0,.07s0,0,0,0-.08,0-.09,0,0,0,0,.06a.38.38,0,0,0,0,.1c0,.07,0,.13,0,.19a.74.74,0,0,1,0,.12s0,0,0,0,0,0,.07,0h.05a.07.07,0,0,1,.07,0s0,0,0,0a.09.09,0,0,1,0,.07s-.06,0-.1.06h0a.36.36,0,0,0-.15,0,1,1,0,0,1-.17,0s0,0,0,0h-.06l0,0,0,0a.08.08,0,0,1,.08,0l.06,0,.06,0s0-.07,0-.1a0,0,0,0,1,0,0s0,0,0,0a.11.11,0,0,0,0-.08s0-.08,0-.12,0-.06,0-.09,0-.06,0-.09h-.06S171.39,148.18,171.36,148.19Z" transform="translate(-90.38 -122.55)"/><path d="M172.5,148.23l0,.05s0,0,0,0a.78.78,0,0,1,0,.14s0,0,0,.07,0,.12,0,.12h0s0,0,0,0l0,0a.09.09,0,0,1,0-.06,1.59,1.59,0,0,0-.12-.27.28.28,0,0,0-.06-.09s0,.06-.06.1l0,.11s0,0,0,.08a.19.19,0,0,1,0,.07s0,.06,0,.08a.05.05,0,0,1,0,.07.12.12,0,0,1-.09,0,.12.12,0,0,1,0-.07.27.27,0,0,1,0-.09.07.07,0,0,1,0-.05l0-.05a.42.42,0,0,1,0-.06.62.62,0,0,1,0-.22.08.08,0,0,1,.05,0l.05,0s0,0,0,.07,0,.11,0,.12l0-.08s0-.05,0-.09a.12.12,0,0,1,0-.08h.09a.08.08,0,0,1,.07,0,.23.23,0,0,1,.07.07Z" transform="translate(-90.38 -122.55)"/><path d="M173.13,148s.08,0,.1,0a.08.08,0,0,1,.09,0s0,0,.05.07l0,.08s0,.08,0,.13,0,0,0,0v.08a.94.94,0,0,1,0,.16s0,.09,0,.12a.08.08,0,0,1-.08,0s-.06,0,0-.07,0-.07,0-.11a.81.81,0,0,1,0-.16.15.15,0,0,1,0-.07s0,0,0-.07-.05-.15-.11-.15,0,0,0,.06,0,.07,0,.12-.06.09-.06.15a.18.18,0,0,1-.05.08.36.36,0,0,1,0,.1s0,0-.05.06-.05,0-.08,0-.05-.09-.05-.14v0s0,0,0-.06a.59.59,0,0,0,0-.13.44.44,0,0,1,0-.1.42.42,0,0,0,0-.12,1,1,0,0,1,0-.17.11.11,0,0,1,0-.08l0-.07a.09.09,0,0,1,0-.07l.07,0h.06s0,0,0,.08,0,0,0,.06,0,.09,0,.12,0,.07,0,.09a.53.53,0,0,1,0,.12s0,.25.07.24,0,0,0-.06,0,0,0,0l0,0a.35.35,0,0,0,.05-.13s0,0,0-.05A.05.05,0,0,0,173.13,148Z" transform="translate(-90.38 -122.55)"/><path d="M173.72,147.75c0,.08,0,.06-.07.1s-.07,0-.07-.06,0,0,0,0,0,0,.06-.06h.06A.14.14,0,0,0,173.72,147.75Zm.05.41v.13a.17.17,0,0,1,0,.1s0,.05,0,.08l0,.06a.17.17,0,0,1,0,.07s0,0-.08,0-.06,0-.06,0l0,0a.15.15,0,0,1,0-.07.43.43,0,0,0,0-.11s0-.06,0-.1a.68.68,0,0,1,0-.2s0-.07,0-.09,0,0,0,0a.05.05,0,0,0,0,0s0,0,0,.09A.53.53,0,0,1,173.77,148.16Z" transform="translate(-90.38 -122.55)"/><path d="M174,147.62s0,.09,0,.13,0,.09,0,.13,0,.1,0,.09.06-.06.09-.08,0,0,0,0,0,0,.06,0,0,0,.06,0h.06a.1.1,0,0,1,.1,0,.18.18,0,0,1,.06.14,1.11,1.11,0,0,1,0,.17.51.51,0,0,1-.09.18s-.05,0-.07.06h0v0a.39.39,0,0,1-.15.11l-.09,0s-.05,0-.06-.06l0,0s0,0,0,0,0-.09,0-.14,0-.06,0-.08a.09.09,0,0,0,0,0v-.06c0-.05,0-.08,0-.12a.59.59,0,0,0,0-.14.16.16,0,0,1,0-.12s0-.07,0-.1,0-.11,0-.16a.08.08,0,0,1,0-.07s0,0,.05,0a.1.1,0,0,1,0,.09A.17.17,0,0,0,174,147.62Zm.15.64s0,0,0,.08,0,.06,0,0l.09,0,.06-.05s0,0,0-.05a.08.08,0,0,0,0,0,.16.16,0,0,0,0-.09c0-.05,0-.14,0-.17a.27.27,0,0,0-.14,0s-.09.06-.08.11,0,.11,0,.15Z" transform="translate(-90.38 -122.55)"/><path d="M174.81,147.65c0,.07,0,0-.06.09a.1.1,0,0,1-.08-.06.09.09,0,0,0,0-.05s0,0,.06,0a.06.06,0,0,1,.06,0S174.81,147.62,174.81,147.65Zm.06.4a.57.57,0,0,0,0,.13s0,.07,0,.1,0,.05,0,.08a.07.07,0,0,1,0,.06s0,.05,0,.07,0,0-.09,0-.05,0-.05,0l0,0a.64.64,0,0,1,0-.07.41.41,0,0,0,0-.11s0-.06,0-.1a.69.69,0,0,1,0-.2s0-.06,0-.09,0,0,0,0,0,0,0,0,0,0,.06.09S174.87,148,174.87,148.05Z" transform="translate(-90.38 -122.55)"/><path d="M175.39,147.39a.11.11,0,0,1,0,.11.16.16,0,0,0,0,.12.14.14,0,0,0,0,.09s.05,0,.06,0,.05,0,.07,0,.14,0,.12.08-.1.07-.16.08-.08,0-.08,0a.2.2,0,0,1,0,.07s0,0,0,.06,0,.06,0,.1a.74.74,0,0,1,0,.14s0,.1,0,.08a.16.16,0,0,0,.11-.05s.09-.05.11,0a.11.11,0,0,1,0,.12.27.27,0,0,1-.1.06s-.08.05-.13,0l-.1,0s0,0-.06-.08a1,1,0,0,1-.05-.3.68.68,0,0,1,0-.14.08.08,0,0,0,0-.05h-.05s0,0-.06,0,0,0,0,0a.13.13,0,0,1-.12,0s0-.05,0-.07,0,0,.07,0,.05,0,.09,0,.08,0,.11,0h0s0-.06,0-.1a.22.22,0,0,1,0-.08.22.22,0,0,1,0-.08.26.26,0,0,1,0-.1s.05,0,.06,0Z" transform="translate(-90.38 -122.55)"/><path d="M176.43,147.86v.07s0,0,0,.07a.29.29,0,0,1,0,.13s0,0,0,0l0,.05a.26.26,0,0,1-.11.07.18.18,0,0,1-.1,0,.06.06,0,0,1-.09,0s-.05,0-.07,0,0,0-.05,0,0-.08,0-.11a.22.22,0,0,1,0-.14.56.56,0,0,1,0-.12l0,0s0,0,0-.06a.3.3,0,0,1,.08-.08s.1,0,.13,0,.2,0,.27.06A.22.22,0,0,1,176.43,147.86Zm-.42,0s0,0,0,0a.35.35,0,0,0-.06.14s0,0,0,0v0s0,0,0,.07a.08.08,0,0,0,.08,0s0,0,0,0,0,0,0,0,0,0,.07,0l.06,0,0,0s0,0,0,0,0,0,0,0v0a.29.29,0,0,0,0-.13c0-.08-.14-.06-.19-.06a.12.12,0,0,1-.08,0S176,147.84,176,147.86Z" transform="translate(-90.38 -122.55)"/><path d="M177.17,147.61c.05,0,.08.07,0,.12a.26.26,0,0,0-.15,0c-.05,0-.09.1-.11.14a.56.56,0,0,0-.11.35s0,.09,0,.12-.11,0-.13,0a.28.28,0,0,1,0-.09.29.29,0,0,0,0-.09s0,0,0-.07v0a.07.07,0,0,1,0-.06s0-.07,0-.11,0,0,0,0,0,0,.07,0,0,.11,0,.12a.05.05,0,0,0,0-.06s0,0,0-.07.06-.09.09-.14a.28.28,0,0,1,.13-.11l.07,0A0,0,0,0,1,177.17,147.61Z" transform="translate(-90.38 -122.55)"/><path d="M178.5,147.69c0,.06,0,.1-.05.1h0s0,0-.06,0h-.21l-.12,0s0,0,0,0a.05.05,0,0,0,0,0l0,0,.06,0,.07,0h.07a.07.07,0,0,0,.05,0h0l.06,0,.11-.06a.05.05,0,0,1,0,0h0a0,0,0,0,1,0,0v0s0,.1-.15.14l-.08,0-.05,0,0,0a.23.23,0,0,1-.11,0l0,0-.08,0L178,148a.17.17,0,0,1-.06-.12.18.18,0,0,1,0-.06l0,0v0a.13.13,0,0,1,0-.06.07.07,0,0,0,0,0,.2.2,0,0,1,.1-.14.44.44,0,0,1,.16-.06.36.36,0,0,1,.19.07.33.33,0,0,1,.11.16A.09.09,0,0,1,178.5,147.69Zm-.45-.08v0l0,0h.22a0,0,0,0,0,0,0h0a.11.11,0,0,0-.08-.07h-.16l0,0S178.05,147.6,178.05,147.61Z" transform="translate(-90.38 -122.55)"/><path d="M179.31,147.4c.05,0,.08.07,0,.12a.26.26,0,0,0-.15,0c-.05,0-.09.1-.11.14a.56.56,0,0,0-.11.35s0,.09,0,.12a.12.12,0,0,1-.13,0,.28.28,0,0,1,0-.09.29.29,0,0,0,0-.09s0,0,0-.07v0a.09.09,0,0,1,0-.06s0-.07,0-.12l0,0s0,0,.07,0,0,.1,0,.12,0,0,0-.06,0,0,0-.07a.42.42,0,0,1,.09-.14.28.28,0,0,1,.13-.11h.07S179.29,147.38,179.31,147.4Z" transform="translate(-90.38 -122.55)"/><path d="M180.12,147a.49.49,0,0,1,0,.12l0,.14s0,.1,0,.08.06-.05.08-.08l0,0a.07.07,0,0,0,.06,0s0,0,.06,0a.06.06,0,0,0,.06,0,.14.14,0,0,1,.11,0,.28.28,0,0,1,.06.15.55.55,0,0,1,0,.17.61.61,0,0,1-.09.18s-.05,0-.06.06,0,0,0,0l0,0a.35.35,0,0,1-.15.11l-.08,0s0,0-.07-.05l0,0s0,0,0,0a.4.4,0,0,0,0-.15s0,0,0-.08l0,0v-.06c0-.05,0-.08,0-.12a.77.77,0,0,1,0-.15.23.23,0,0,1,0-.11s0-.07,0-.11,0-.11,0-.16a.07.07,0,0,1,0-.06.05.05,0,0,1,.05,0,.08.08,0,0,1,0,.08A.2.2,0,0,0,180.12,147Zm.15.64s0,0,0,.07,0,.06,0,0l.08-.05a.15.15,0,0,0,.06,0s0,0,0-.06,0,0,0,0a.16.16,0,0,0,0-.09c0-.06,0-.15,0-.18s-.1,0-.13.05-.09,0-.09.1,0,.11,0,.15Z" transform="translate(-90.38 -122.55)"/><path d="M181,147V147a.07.07,0,0,0,0,.06.27.27,0,0,1,0,.09.28.28,0,0,0,0,.09.91.91,0,0,1,0,.17.66.66,0,0,0,0,.14c0,.06,0,.11.05.17s0,.05,0,.07l-.06,0a.06.06,0,0,1-.08-.05.76.76,0,0,1,0-.15.94.94,0,0,1,0-.29.13.13,0,0,1,0-.06s0,0,0-.06a.41.41,0,0,1,0-.11.11.11,0,0,0,0-.06.24.24,0,0,1,0-.12s0-.07,0-.11,0,0,0,0,.06,0,.07,0A.41.41,0,0,1,181,147Z" transform="translate(-90.38 -122.55)"/><path d="M181.55,147.82a.11.11,0,0,1-.06,0,.63.63,0,0,1-.19,0c-.07,0-.12-.07-.13-.13v-.07s.06-.06.06-.09,0,0,0,0,0,0,0,0a.12.12,0,0,1,.08,0s0,0,.05,0h.07s.08,0,.06,0,0-.07-.06-.08,0-.06-.1,0-.08.05-.1.05l0,0s0,0-.05,0h0v0s0,0,0,0l0,0,.07,0a.14.14,0,0,1,.09,0h.1s.1.06.12.09a1.22,1.22,0,0,1,.1.24c0,.05,0,.08,0,.13s0,.07,0,.11a.53.53,0,0,1,0,.14s0,0-.05,0h-.07l0,0s0,0-.06,0Zm0-1a.43.43,0,0,0,0,0l0,0s0,0-.06,0h-.12l-.05,0a.05.05,0,0,1,0,0s0,0,0,0a0,0,0,0,0,0,0s0,0,0-.07a.15.15,0,0,1,0-.07s0,0,.05-.05l0,0v0l.06,0,.07,0s.09,0,.11.1A.22.22,0,0,1,181.58,146.83Zm0,.69s0,0,0,0h-.11s-.06,0-.08,0a0,0,0,0,1,0,0l0,0a.08.08,0,0,0,0,.07s0,0,0,0,.07,0,.11,0,.08,0,.1,0,.08,0,.09,0,0,0,0-.05A.11.11,0,0,0,181.63,147.52Zm-.28-.74a.06.06,0,0,0,0,.05.08.08,0,0,0,0,0h0a.09.09,0,0,0,.06-.06s0,0,0,0,0,0-.07,0h-.06Z" transform="translate(-90.38 -122.55)"/><path d="M183.05,146.79a.2.2,0,0,0,.07.06s.07.09.06.13a.06.06,0,0,1-.06.05s-.06,0-.08,0a.21.21,0,0,0-.12-.14l-.08,0a.07.07,0,0,0-.08,0s0,.05,0,.07,0,.07,0,.11a1.1,1.1,0,0,0,0,.18s0,0,.07,0h.07s0,0,.06,0a.08.08,0,0,1,.07,0,.09.09,0,0,1,.06.06.08.08,0,0,1,0,.07h0s0,0-.05,0h-.05a.05.05,0,0,1,0,0h0s0,0-.06,0a.16.16,0,0,0,0,.1,1,1,0,0,0,.08.18.19.19,0,0,1,0,.08s0,0,0,.06h0s-.06-.05-.06-.07a.74.74,0,0,1,0-.14.53.53,0,0,1,0-.12s0-.05-.05-.05-.15.07-.16.05h0l0,0s0,0,0,0,0,0,0,0l.06,0s.07,0,.1,0l.09,0s0,0,0-.08a1,1,0,0,1,0-.17.9.9,0,0,1,0-.16.18.18,0,0,1,.06-.09s0,0,.05,0l0,0a.37.37,0,0,1,.21.06S183,146.76,183.05,146.79Z" transform="translate(-90.38 -122.55)"/><path d="M183.89,147.12v.14s0,.1,0,.14,0,0-.05,0l0,0-.1.07-.1,0a.12.12,0,0,1-.1,0s-.05,0-.07,0a.08.08,0,0,0,0,0s0-.08,0-.11a.17.17,0,0,1,0-.14.36.36,0,0,1,0-.11s0,0,0-.06,0,0,0-.05a.24.24,0,0,1,.08-.09s.11,0,.14,0,.19,0,.26.06A.18.18,0,0,1,183.89,147.12Zm-.42,0s0,0,0,0a.46.46,0,0,0-.07.14,0,0,0,0,1,0,0s0,0,0,0a.15.15,0,0,0,0,.07s0,0,.08,0,0,0,.05,0l0,0s0,0,.07,0,.05,0,.06,0,0,0,0,0,0,0,0,0l0,0s0,0,0-.06a.57.57,0,0,0,0-.13c0-.07-.13-.06-.19-.06a.11.11,0,0,1-.08,0S183.48,147.1,183.47,147.12Z" transform="translate(-90.38 -122.55)"/><path d="M184.63,146.87c.05,0,.08.07,0,.12a.2.2,0,0,0-.15,0,.35.35,0,0,0-.11.13.63.63,0,0,0-.11.35s0,.1,0,.13a.12.12,0,0,1-.14,0,.25.25,0,0,1,0-.09s0-.06,0-.08a.16.16,0,0,0,0-.07v-.05a.11.11,0,0,1,0-.06s0-.07,0-.11,0,0,0,0,0,0,.07,0,0,.1,0,.11,0,0,.05-.06,0,0,0-.07.07-.09.1-.14a.22.22,0,0,1,.13-.1s0,0,.06,0S184.61,146.85,184.63,146.87Z" transform="translate(-90.38 -122.55)"/><path d="M185.37,146.67a.7.7,0,0,0,0,.14.43.43,0,0,0,0,.07c0,.06,0,.12,0,.17v.07a.06.06,0,0,1,.05.06c0,.06,0,.11,0,.17a.22.22,0,0,1,0,.08l-.09,0s0,0,0-.05,0-.07,0-.09,0,0-.06,0l-.1.05s-.06,0-.07,0l-.06,0a.29.29,0,0,1-.29-.13.22.22,0,0,1,0-.11.42.42,0,0,1,0-.16.13.13,0,0,0,0-.05s0,0,0-.07a.42.42,0,0,1,.14-.09.39.39,0,0,1,.15-.06s.06,0,.06,0,0-.12,0-.15a.86.86,0,0,1,0-.16.15.15,0,0,1,0-.07s0,0,0,0a0,0,0,0,1,.06,0s0,0,0,0a.2.2,0,0,1,0,.11A.71.71,0,0,0,185.37,146.67ZM185,147l0,0a.16.16,0,0,0,0,.07.22.22,0,0,0,0,.16c0,.07.09.09.15.09h.06s.05,0,.08,0l.06,0s0,0,0,0l0,0,0,0a.15.15,0,0,0,0-.06.56.56,0,0,1,0-.12.79.79,0,0,0,0-.09s0,0-.08,0l-.08,0A.25.25,0,0,0,185,147Z" transform="translate(-90.38 -122.55)"/><path d="M185.76,146.56c0,.08,0,.06-.06.1a.16.16,0,0,1-.08-.06.11.11,0,0,0,0,0s0,0,.06-.06h.06S185.76,146.54,185.76,146.56Zm.06.4v.14s0,.06,0,.1,0,.05,0,.08a.11.11,0,0,1,0,.06.09.09,0,0,1,0,.07s-.05,0-.08,0-.06,0-.06,0l0,0a.17.17,0,0,1,0-.07.43.43,0,0,0,0-.11s0-.07,0-.1a1.52,1.52,0,0,1,0-.21s0-.06,0-.08,0,0,0,0,0,0,0,0,.05,0,.06.08A.62.62,0,0,1,185.82,147Z" transform="translate(-90.38 -122.55)"/><polyline class="cls-23" points="100 61.17 102.72 63.42 102.36 66.72 100.39 66.36"/><path class="cls-3" d="M187.14,191.71l6.38-.52-.36-2.73-2.6.3a3.23,3.23,0,0,1-2.76,1.71" transform="translate(-90.38 -122.55)"/><path class="cls-23" d="M194.6,176.69a47.86,47.86,0,0,1-1.5,9.29c-1.35,5.23-2.71-2.25-2.71-2.25l-.09-7.34" transform="translate(-90.38 -122.55)"/><path class="cls-3" d="M187.8,190.47a3.31,3.31,0,0,0,2.76-1.71l2.6-.3.36,2.73-6.38.52S186.53,190.57,187.8,190.47Z" transform="translate(-90.38 -122.55)"/><polyline class="cls-23" points="107.94 63.18 110.89 65.11 110.91 68.43 108.92 68.3"/><path class="cls-3" d="M201.62,190.13l-2.55.59a3.22,3.22,0,0,1-2.55,2s-.79.19-.52,1.31l6.29-1.24Z" transform="translate(-90.38 -122.55)"/><path class="cls-23" d="M198.33,185.74l-.92-7.28a5.31,5.31,0,0,1,.6-3.3,3,3,0,0,1,2.19-1.67c2.4-.33-1.2-1.83-1.2-1.83l3.86,2.25-1.14,4.36a47.51,47.51,0,0,1-.44,9.4C200.53,193,198.33,185.74,198.33,185.74Z" transform="translate(-90.38 -122.55)"/><path class="cls-3" d="M196,194l6.29-1.24-.67-2.66-2.55.59a3.22,3.22,0,0,1-2.55,2s-.79.19-.52,1.31" transform="translate(-90.38 -122.55)"/><path class="cls-10" d="M195,164.93s-2.88,7.42-6.29,11.53a9.68,9.68,0,0,0,5.76,1.43c3.19-.3,3.8-1,5.95-1s5.82.49,6.92,1.05,5.45-.19,5.94-.86S204,162.58,204,162.58Z" transform="translate(-90.38 -122.55)"/><path class="cls-23" d="M190.51,150.06,188,147.45s0-.1-.12-.25c-.35-.7-1.47-2.57-3.08-1.74-2,1-.57.86-.57.86.29-.48,1.27.36,1.27.36l.06.15c-.78,0-1.4.29-1.21.56s1.07.15,1.45.74c.25.39.73.28,1,.16.21.39,1,1.76,1.75,3.11Z" transform="translate(-90.38 -122.55)"/><path class="cls-24" d="M198.15,154.2l.93-3.43s-3.4,1.6-9.11-3.21c0,0-2.57-.48-3,2.53s7.68,5,7.68,5Z" transform="translate(-90.38 -122.55)"/><path class="cls-23" d="M194.57,146.93c-2.14.52-1.12,3.6-1.12,3.6l-.15,2.4,2.13.19c-.29-1.52-.58-2.84-.58-2.84s.64-.34,0-2c0,0,.2-1.28.73-1.11C195.57,147.2,196.72,146.4,194.57,146.93Z" transform="translate(-90.38 -122.55)"/><path class="cls-25" d="M191.17,139.47c1.29-1.14,9-3.07,9-4.82,0-3.49-.1-6-4-6S179.1,131.51,179.1,135s3.17,6.31,7.08,6.31a6.51,6.51,0,0,0,.77,0l4.72,4.42Z" transform="translate(-90.38 -122.55)"/><polygon class="cls-26" points="93.8 23.76 96.73 21.69 97.4 21.98 94.04 24.51 93.01 24.77 93.8 23.76"/><path class="cls-27" d="M198.63,141.49s3.15-2.46,4.83,1c0,0,3.93,1.26,1.45,4.4,0,0,2.77,3.72-.91,5.48,0,0-8.57,2.25-6-1.93l-.13-1.83Z" transform="translate(-90.38 -122.55)"/><path class="cls-27" d="M200,142.14s-1.12-2.53-2.69-.86a1.78,1.78,0,0,0-.72,1.45s-1.1,0-1.07.74,1.21.5,1.21.5l2.64-1.36Z" transform="translate(-90.38 -122.55)"/><path class="cls-23" d="M201.56,151.71,201,148.9l2.4-4L200,142.17l-1.29.23a1.91,1.91,0,0,0-1.09.64,6,6,0,0,1-2,1.58s-.69.26.81.69l-.41,1.24,1.34,2a8.36,8.36,0,0,0,.72,2.78C199,153.78,201.56,151.71,201.56,151.71Z" transform="translate(-90.38 -122.55)"/><path class="cls-23" d="M200.27,145.82c-.45,1-.82,2.59-1.59,2.74-1.26.24-3.18-.05-3-.88a6.61,6.61,0,0,1,.77-2.2c.11-.29.57,0,1.34.94.35.41.81,0,1.2-.59" transform="translate(-90.38 -122.55)"/><circle class="cls-8" cx="107.27" cy="21.52" r="0.24"/><rect class="cls-27" x="197.45" y="143.47" width="1.33" height="0.23" rx="0.11" transform="translate(171.86 257.16) rotate(-141.13)"/><ellipse class="cls-28" cx="197.66" cy="144.12" rx="0.78" ry="0.66" transform="translate(-127.48 90.31) rotate(-52.42)"/><line class="cls-29" x1="107.87" y1="21.91" x2="109.62" y2="23.07"/><path class="cls-30" d="M201.34,150.33c-2.48,1.34-3.7,0-3.7,0-.42.1-1.53,1.76-1.53,1.76-1.29,2.82-2,12.59-1.06,13.15,2.6,1.51,10.63-.24,10.63-.24C206.56,159.3,201.34,150.33,201.34,150.33Z" transform="translate(-90.38 -122.55)"/><path class="cls-31" d="M195.4,150.37a10.89,10.89,0,0,1-2-.05c-.39-.13-.91,5.77-.62,6.61s7.27,1.41,8,1.17,4.14-2.73,1.07-4.14-6.77,1.16-6.77,1.16S196.19,155.62,195.4,150.37Z" transform="translate(-90.38 -122.55)"/><path class="cls-27" d="M202.32,148a1,1,0,0,0-1.2-1.1c-.64.14-1.27.64-1.19,2.12a2.54,2.54,0,0,0,.59,1.88,1.67,1.67,0,0,0,.21,1.51c.54.53,2-.48,2-.48l1-.9c.61-1-.21-1.9-1-2.69l-.36-.34Z" transform="translate(-90.38 -122.55)"/><path class="cls-27" d="M199.42,145.06a2.78,2.78,0,0,0,.05-1.33c-.1-.22-1.67-.41-1.44-1.16s1.24-1.35,2.72-1.17a9.47,9.47,0,0,1,1.84.76,2.87,2.87,0,0,1,.68,4.46l-.06.07s-1.24,2.12-1.88,1.33-1-.72-.59-1.11c0,0,1.95-.93.56-1.84-.26-.17-1.07.27-1.14.44" transform="translate(-90.38 -122.55)"/><path class="cls-27" d="M183,136.71l.09.26a.38.38,0,0,0-.26.55l.23.62-.29.1-.45-1.24.25-.14.08.21A.46.46,0,0,1,183,136.71Z" transform="translate(-90.38 -122.55)"/><path class="cls-27" d="M184.58,137.1l.18.2a.9.9,0,0,1-.49.43.7.7,0,1,1-.49-1.32.64.64,0,0,1,.82.33l-.87.68a.44.44,0,0,0,.46.07A.65.65,0,0,0,184.58,137.1Zm-1,.11.64-.5a.33.33,0,0,0-.38-.07A.45.45,0,0,0,183.6,137.21Z" transform="translate(-90.38 -122.55)"/><path class="cls-27" d="M185.11,136.24l.21.6a.18.18,0,0,0,.25.12.62.62,0,0,0,.16-.1l.09.25a.68.68,0,0,1-.21.12.4.4,0,0,1-.56-.26l-.23-.63-.19.07,0-.26.15-.05-.09-.26.23-.26.15.41.34-.12.09.24Z" transform="translate(-90.38 -122.55)"/><path class="cls-27" d="M186.76,135.33l.47,1.29-.27.1-.06-.14a.52.52,0,0,1-.32.31.5.5,0,0,1-.68-.35l-.27-.75.27-.15.28.76a.28.28,0,0,0,.38.21.31.31,0,0,0,.18-.44l-.25-.69Z" transform="translate(-90.38 -122.55)"/><path class="cls-27" d="M187.84,134.94l.1.27a.38.38,0,0,0-.27.54l.23.62-.28.11-.46-1.25.26-.13.07.2A.49.49,0,0,1,187.84,134.94Z" transform="translate(-90.38 -122.55)"/><path class="cls-27" d="M189.42,135l.28.77-.28.1-.27-.73a.28.28,0,0,0-.39-.21.31.31,0,0,0-.18.44l.26.71-.29.11-.45-1.25.26-.14.06.16a.54.54,0,0,1,.33-.31A.49.49,0,0,1,189.42,135Z" transform="translate(-90.38 -122.55)"/><path class="cls-27" d="M190.39,134.14l-.3.11v-.89l.25-.13Zm.53-.19-.3.11v-.89l.24-.13Z" transform="translate(-90.38 -122.55)"/><path class="cls-27" d="M193,133.8a.7.7,0,0,1-.45.92.69.69,0,0,1-.92-.43l-.5-1.36.28-.14.34.94a.62.62,0,0,1,.36-.35A.69.69,0,0,1,193,133.8Zm-.28.11a.43.43,0,1,0-.8.3.43.43,0,1,0,.8-.3Z" transform="translate(-90.38 -122.55)"/><path class="cls-27" d="M192.78,132.33l.27-.15.75,2-.29.1Z" transform="translate(-90.38 -122.55)"/><path class="cls-27" d="M194.85,132.39l.46,1.29-.27.1,0-.15a.53.53,0,0,1-.33.32.51.51,0,0,1-.67-.35l-.27-.75.27-.15.27.76a.3.3,0,0,0,.39.21.33.33,0,0,0,.18-.44l-.25-.69Z" transform="translate(-90.38 -122.55)"/><path class="cls-27" d="M196.61,132.73l.17.19a.85.85,0,0,1-.48.43.7.7,0,1,1-.49-1.32.63.63,0,0,1,.81.34l-.86.67a.46.46,0,0,0,.46.08A.71.71,0,0,0,196.61,132.73Zm-1,.1.64-.5a.37.37,0,0,0-.38-.07A.44.44,0,0,0,195.63,132.83Z" transform="translate(-90.38 -122.55)"/><path class="cls-27" d="M196.59,131l.3-.11v.89l-.24.13Zm.53-.19.3-.11v.89l-.25.13Z" transform="translate(-90.38 -122.55)"/><path class="cls-27" d="M198,131.48a.22.22,0,0,1,.13-.28.21.21,0,0,1,.29.13.22.22,0,0,1-.14.28A.21.21,0,0,1,198,131.48Zm.31.65.32-.12v.93l-.26.14Z" transform="translate(-90.38 -122.55)"/><path class="cls-10" d="M122.13,155.27a1.66,1.66,0,0,1,1.13-1.07l.08.27a1.36,1.36,0,0,0-.93.89,1.41,1.41,0,0,0,.17,1.29l-.22.16A1.68,1.68,0,0,1,122.13,155.27Z" transform="translate(-90.38 -122.55)"/><path class="cls-10" d="M123.58,155.6l-.21.6a.17.17,0,0,0,.11.25.58.58,0,0,0,.18,0l-.08.25a.6.6,0,0,1-.25,0,.41.41,0,0,1-.26-.56l.22-.63-.19-.07.12-.23.15.05.09-.26.34-.05-.14.41.35.12-.08.25Z" transform="translate(-90.38 -122.55)"/><path class="cls-10" d="M125.48,156l-1.55,1.6-.31-.11.65-.63-.13-1.32.31.11.07,1,.65-.72Z" transform="translate(-90.38 -122.55)"/><path class="cls-10" d="M126.84,157.16a.69.69,0,0,1-.87.45.6.6,0,0,1-.37-.34l-.27.8L125,158l.66-1.89.28,0-.08.21a.58.58,0,0,1,.53-.06A.68.68,0,0,1,126.84,157.16Zm-.28-.09a.44.44,0,0,0-.27-.56.42.42,0,0,0-.54.27.43.43,0,1,0,.81.29Z" transform="translate(-90.38 -122.55)"/><path class="cls-10" d="M128.12,157.85v.26a.88.88,0,0,1-.64,0,.71.71,0,1,1,.45-1.34.64.64,0,0,1,.42.78l-1.09,0a.41.41,0,0,0,.3.35A.68.68,0,0,0,128.12,157.85Zm-.82-.54.81,0a.37.37,0,0,0-.25-.3A.44.44,0,0,0,127.3,157.31Z" transform="translate(-90.38 -122.55)"/><path class="cls-10" d="M129.16,157.84l1.22.42-.08.24-1.22-.42Zm.2-.55,1.21.42-.08.24-1.22-.42Z" transform="translate(-90.38 -122.55)"/><path class="cls-10" d="M130.61,158.34l1.22.43-.08.24-1.22-.43Zm.2-.55,1.22.42-.09.24-1.22-.42Z" transform="translate(-90.38 -122.55)"/><path class="cls-10" d="M132.07,158.85l1.21.42-.08.24-1.22-.42Zm.19-.56,1.22.42-.09.25-1.22-.43Z" transform="translate(-90.38 -122.55)"/><path class="cls-10" d="M134.49,159.21l-.3-.1.57-.69.27.05Zm.53.19-.3-.11.56-.69.27.05Z" transform="translate(-90.38 -122.55)"/><path class="cls-10" d="M136.07,160.44l-.74-.26-.44.49-.33-.12,1.66-1.73.22,2.39-.33-.12Zm0-.31,0-.67-.46.5Z" transform="translate(-90.38 -122.55)"/><path class="cls-10" d="M137.22,159.25l.3.1L137,160l-.27,0Zm.53.18.3.11-.57.69-.27,0Z" transform="translate(-90.38 -122.55)"/><path class="cls-10" d="M137.45,161.81a1.42,1.42,0,0,0,.76-2.18l.23-.16a1.63,1.63,0,0,1,.22,1.53,1.66,1.66,0,0,1-1.13,1.07Z" transform="translate(-90.38 -122.55)"/></svg>